<svg width="32" height="32" viewBox="0 0 32 32" fill="none" xmlns="http://www.w3.org/2000/svg">
  <!-- 背景 -->
  <rect width="32" height="32" rx="6" fill="#1e40af"/>
  
  <!-- 建物のベース -->
  <rect x="6" y="20" width="20" height="10" fill="#ffffff" rx="1"/>
  
  <!-- 建物の窓 -->
  <rect x="8" y="22" width="3" height="3" fill="#1e40af" rx="0.5"/>
  <rect x="13" y="22" width="3" height="3" fill="#1e40af" rx="0.5"/>
  <rect x="18" y="22" width="3" height="3" fill="#1e40af" rx="0.5"/>
  <rect x="23" y="22" width="3" height="3" fill="#1e40af" rx="0.5"/>
  
  <!-- 2階の窓 -->
  <rect x="8" y="17" width="3" height="3" fill="#1e40af" rx="0.5"/>
  <rect x="13" y="17" width="3" height="3" fill="#1e40af" rx="0.5"/>
  <rect x="18" y="17" width="3" height="3" fill="#1e40af" rx="0.5"/>
  <rect x="23" y="17" width="3" height="3" fill="#1e40af" rx="0.5"/>
  
  <!-- 3階の窓 -->
  <rect x="8" y="12" width="3" height="3" fill="#1e40af" rx="0.5"/>
  <rect x="13" y="12" width="3" height="3" fill="#1e40af" rx="0.5"/>
  <rect x="18" y="12" width="3" height="3" fill="#1e40af" rx="0.5"/>
  <rect x="23" y="12" width="3" height="3" fill="#1e40af" rx="0.5"/>
  
  <!-- 屋根 -->
  <path d="M4 20 L16 8 L28 20 Z" fill="#dc2626"/>
  
  <!-- 煙突 -->
  <rect x="20" y="6" width="2" height="4" fill="#6b7280"/>
</svg>
